<svg data-v-fde0c5aa="" xmlns="http://www.w3.org/2000/svg" viewBox="0 0 300 300" class="iconAbove"><!----><defs data-v-fde0c5aa=""><!----></defs><rect data-v-fde0c5aa="" fill="#33AE3D" x="0" y="0" width="300px" height="300px" class="logo-background-square"></rect><defs data-v-fde0c5aa=""><!----></defs><g data-v-fde0c5aa="" id="013ae765-cdd1-4a3d-a5b8-c8d5abbe751c" fill="#FFFFFF" transform="matrix(3.916252483661558,0,0,3.916252483661558,15.222171857888018,173.9405034492586)"><path d="M1.22 12.04L1.22 1.91L2.24 1.91L2.24 11.07L6.14 11.07L6.14 12.04L1.22 12.04ZM11.12 4.22L11.12 4.22L11.12 4.22Q12.85 4.22 13.99 5.47L13.99 5.47L13.99 5.47Q15.05 6.61 15.05 8.18L15.05 8.18L15.05 8.18Q15.06 12.07 15.05 12.13L15.05 12.13L15.05 12.13Q14.39 12.13 14.03 12.13L14.03 12.13L14.03 12.13Q14.03 12.08 14.03 10.42L14.03 10.42L14.03 10.42Q13.23 11.92 11.12 12.09L11.12 12.09L11.12 12.09Q9.40 12.09 8.31 10.92L8.31 10.92L8.31 10.92Q7.22 9.75 7.22 8.18L7.22 8.18L7.22 8.18Q7.22 6.62 8.25 5.48L8.25 5.48L8.25 5.48Q9.39 4.22 11.12 4.22ZM11.12 5.16L11.12 5.16L11.12 5.16Q9.93 5.16 9.06 6.05L9.06 6.05L9.06 6.05Q8.20 6.94 8.20 8.20L8.20 8.20L8.20 8.20Q8.20 9.01 8.64 9.76L8.64 9.76L8.64 9.76Q9.08 10.51 10.14 11.03L10.14 11.03L10.14 11.03Q12.78 11.62 13.89 8.63L13.89 8.63L13.89 8.63Q13.95 7.68 13.69 6.80L13.69 6.80L13.69 6.80Q13.49 6.41 13.16 6.05L13.16 6.05L13.16 6.05Q12.32 5.16 11.12 5.16ZM20.69 5.23L20.69 5.23L20.07 5.87L20.07 5.87Q19.29 5.12 18.56 5.12L18.56 5.12L18.56 5.12Q18.09 5.12 17.75 5.43L17.75 5.43L17.75 5.43Q17.42 5.74 17.42 6.16L17.42 6.16L17.42 6.16Q17.42 6.51 17.70 6.84L17.70 6.84L17.70 6.84Q17.97 7.19 18.85 7.64L18.85 7.64L18.85 7.64Q19.93 8.20 20.32 8.72L20.32 8.72L20.32 8.72Q20.69 9.24 20.69 9.90L20.69 9.90L20.69 9.90Q20.69 10.81 20.05 11.45L20.05 11.45L20.05 11.45Q19.40 12.09 18.43 12.09L18.43 12.09L18.43 12.09Q17.78 12.09 17.19 11.82L17.19 11.82L17.19 11.82Q16.60 11.54 16.21 11.04L16.21 11.04L16.82 10.35L16.82 10.35Q17.56 11.18 18.39 11.18L18.39 11.18L18.39 11.18Q18.96 11.18 19.37 10.81L19.37 10.81L19.37 10.81Q19.78 10.44 19.78 9.94L19.78 9.94L19.78 9.94Q19.78 9.52 19.51 9.20L19.51 9.20L19.51 9.20Q19.24 8.88 18.30 8.39L18.30 8.39L18.30 8.39Q17.28 7.88 16.92 7.36L16.92 7.36L16.92 7.36Q16.55 6.86 16.55 6.20L16.55 6.20L16.55 6.20Q16.55 5.35 17.13 4.78L17.13 4.78L17.13 4.78Q17.72 4.22 18.60 4.22L18.60 4.22L18.60 4.22Q19.63 4.22 20.69 5.23ZM25.09 11.03L25.09 11.03L25.09 11.03Q24.38 11.41 23.69 11.09L23.69 11.09L23.69 11.09Q22.86 10.45 22.90 9.28L22.90 9.28L22.90 6.10L24.68 6.10L24.68 5.28L22.89 5.28L22.89 1.65L21.92 1.65L21.92 9.44L21.92 9.44Q21.91 10.26 22.30 10.94L22.30 10.94L22.30 10.94Q22.94 12.03 24.05 12.09L24.05 12.09L24.05 12.09Q24.64 12.11 25.39 11.83L25.39 11.83L25.39 11.83Q25.27 11.54 25.09 11.03ZM28.34 2.92L26.08 2.92L26.08 1.93L31.64 1.93L31.64 2.92L29.37 2.92L29.37 12.07L28.34 12.07L28.34 2.92ZM37.96 9.42L37.96 9.42L38.77 9.85L38.77 9.85Q38.38 10.64 37.85 11.12L37.85 11.12L37.85 11.12Q37.32 11.59 36.67 11.84L36.67 11.84L36.67 11.84Q36.01 12.09 35.18 12.09L35.18 12.09L35.18 12.09Q33.35 12.09 32.32 10.89L32.32 10.89L32.32 10.89Q31.29 9.69 31.29 8.18L31.29 8.18L31.29 8.18Q31.29 6.75 32.16 5.64L32.16 5.64L32.16 5.64Q33.27 4.22 35.14 4.22L35.14 4.22L35.14 4.22Q37.04 4.22 38.19 5.67L38.19 5.67L38.19 5.67Q39.01 6.70 39.01 8.23L39.01 8.23L32.28 8.23L32.28 8.23Q32.31 9.54 33.11 10.38L33.11 10.38L33.11 10.38Q33.92 11.22 35.10 11.22L35.10 11.22L35.10 11.22Q35.68 11.22 36.22 11.02L36.22 11.02L36.22 11.02Q36.76 10.81 37.14 10.49L37.14 10.49L37.14 10.49Q37.52 10.16 37.96 9.42ZM32.38 7.40L37.96 7.40L37.96 7.40Q37.77 6.63 37.40 6.17L37.40 6.17L37.40 6.17Q37.03 5.71 36.42 5.42L36.42 5.42L36.42 5.42Q35.81 5.14 35.14 5.14L35.14 5.14L35.14 5.14Q34.04 5.14 33.25 5.85L33.25 5.85L33.25 5.85Q32.68 6.37 32.38 7.40L32.38 7.40ZM40.44 12.07L40.44 8.65L40.44 7.75L40.44 7.75Q40.55 7.08 40.76 6.65L40.76 6.65L40.76 6.65Q41.23 5.48 42.04 4.93L42.04 4.93L42.04 4.93Q42.85 4.38 43.38 4.38L43.38 4.38L43.38 4.38Q43.78 4.38 44.23 4.64L44.23 4.64L43.73 5.45L43.73 5.45Q43.09 5.22 42.47 5.82L42.47 5.82L42.47 5.82Q41.84 6.43 41.60 7.15L41.60 7.15L41.60 7.15Q41.43 7.79 41.43 9.54L41.43 9.54L41.43 12.07L40.44 12.07ZM45.04 12.09L45.04 9.18L45.04 7.98L45.04 7.98Q45.16 6.45 45.68 5.74L45.68 5.74L45.68 5.74Q46.11 5.09 46.81 4.71L46.81 4.71L46.81 4.71Q47.26 4.42 48.11 4.40L48.11 4.40L48.11 4.40Q48.66 4.40 49.22 4.60L49.22 4.60L49.22 4.60Q49.78 4.81 50.09 5.15L50.09 5.15L50.09 5.15Q50.39 5.49 50.71 6.17L50.71 6.17L50.71 6.17Q50.88 5.74 51.43 5.15L51.43 5.15L51.43 5.15Q51.69 4.92 52.12 4.70L52.12 4.70L52.12 4.70Q52.40 4.52 53.45 4.40L53.45 4.40L53.45 4.40Q54.23 4.40 54.95 4.79L54.95 4.79L54.95 4.79Q55.67 5.17 55.96 5.88L55.96 5.88L55.96 5.88Q56.25 6.59 56.25 7.99L56.25 7.99L56.25 12.09L55.26 12.09L55.26 7.99L55.26 7.99Q55.26 6.79 55.09 6.34L55.09 6.34L55.09 6.34Q54.92 5.89 54.50 5.61L54.50 5.61L54.50 5.61Q54.09 5.33 53.50 5.33L53.50 5.33L53.50 5.33Q52.39 5.41 51.60 6.41L51.60 6.41L51.60 6.41Q51.30 6.83 51.14 8.29L51.14 8.29L51.14 12.09L50.18 12.09L50.18 8.24L50.18 8.24Q50.18 6.89 49.88 6.40L49.88 6.40L49.88 6.40Q49.57 5.91 49.16 5.62L49.16 5.62L49.16 5.62Q48.74 5.33 48.12 5.33L48.12 5.33L48.12 5.33Q47.45 5.33 46.97 5.67L46.97 5.67L46.97 5.67Q46.48 6.02 46.21 6.70L46.21 6.70L46.21 6.70Q45.94 7.38 45.99 8.91L45.99 8.91L45.99 12.09L45.04 12.09ZM58.60 1.50L58.60 1.50L58.60 1.50Q58.93 1.50 59.17 1.74L59.17 1.74L59.17 1.74Q59.40 1.97 59.40 2.30L59.40 2.30L59.40 2.30Q59.40 2.63 59.17 2.86L59.17 2.86L59.17 2.86Q58.93 3.10 58.60 3.10L58.60 3.10L58.60 3.10Q58.28 3.10 58.04 2.86L58.04 2.86L58.04 2.86Q57.81 2.63 57.81 2.30L57.81 2.30L57.81 2.30Q57.81 1.97 58.04 1.74L58.04 1.74L58.04 1.74Q58.28 1.50 58.60 1.50ZM58.13 12.09L58.13 4.59L59.09 4.59L59.09 12.09L58.13 12.09ZM61.08 12.09L61.08 9.24L61.07 8.44L61.07 8.44Q61.04 7.85 61.11 7.44L61.11 7.44L61.11 7.44Q61.26 6.15 61.77 5.55L61.77 5.55L61.77 5.55Q62.26 5.02 62.77 4.74L62.77 4.74L62.77 4.74Q63.62 4.38 64.71 4.40L64.71 4.40L64.71 4.40Q65.56 4.40 66.28 4.82L66.28 4.82L66.28 4.82Q67.00 5.25 67.31 5.97L67.31 5.97L67.31 5.97Q67.61 6.69 67.61 8.23L67.61 8.23L67.61 12.09L66.66 12.09L66.66 8.51L66.66 8.51Q66.66 7.21 66.55 6.77L66.55 6.77L66.55 6.77Q66.38 6.03 65.87 5.72L65.87 5.72L65.87 5.72Q65.37 5.41 64.37 5.41L64.37 5.41L64.37 5.41Q63.50 5.41 62.82 5.91L62.82 5.91L62.82 5.91Q62.13 6.42 62.18 7.29L62.18 7.29L62.18 7.29Q62.05 7.85 62.05 9.34L62.05 9.34L62.05 12.09L61.08 12.09Z"></path></g><defs data-v-fde0c5aa=""><!----></defs><g data-v-fde0c5aa="" id="b25f59a5-ca2a-40fd-b93c-9a8eac54e324" stroke="none" fill="#FCFF22" transform="matrix(1.486777298196496,0,0,1.486777298196496,100.19210409801799,74.09502158115768)"><path d="M56 15.952A1 1 0 0 0 55 15H43v-1a11 11 0 0 0-22 0v1H11L9 59h48a1 1 0 0 0 1-1.048zM25 14a7 7 0 0 1 14 0v1H25zm5 40a13.993 13.993 0 0 1-9.069-24.655l-2.638-2.638 1.414-1.414 2.859 2.859A13.9 13.9 0 0 1 29 26.05V22h-2v-2h6v2h-2v4.05a13.9 13.9 0 0 1 6.434 2.1l2.859-2.859 1.414 1.414-2.638 2.638A13.993 13.993 0 0 1 30 54zm22 3V17h2.047l1.9 40z"></path><path d="M30 30a10 10 0 1 0 10 10H30z"></path></g><!----></svg>