<svg data-v-fde0c5aa="" xmlns="http://www.w3.org/2000/svg" viewBox="0 0 300 300" class="icon"><!----><defs data-v-fde0c5aa=""><!----></defs><rect data-v-fde0c5aa="" fill="#33AE3D" x="0" y="0" width="300px" height="300px" class="logo-background-square"></rect><!----><defs data-v-fde0c5aa=""><!----></defs><g data-v-fde0c5aa="" id="9005a1c1-577b-4306-aec0-654af578dbcd" fill="#FCFF22" stroke="none" transform="matrix(3.9285714285714284,0,0,3.9285714285714284,18.390594209943508,28.214285714285715)"><path d="M56 15.952A1 1 0 0 0 55 15H43v-1a11 11 0 0 0-22 0v1H11L9 59h48a1 1 0 0 0 1-1.048zM25 14a7 7 0 0 1 14 0v1H25zm5 40a13.993 13.993 0 0 1-9.069-24.655l-2.638-2.638 1.414-1.414 2.859 2.859A13.9 13.9 0 0 1 29 26.05V22h-2v-2h6v2h-2v4.05a13.9 13.9 0 0 1 6.434 2.1l2.859-2.859 1.414 1.414-2.638 2.638A13.993 13.993 0 0 1 30 54zm22 3V17h2.047l1.9 40z"></path><path d="M30 30a10 10 0 1 0 10 10H30z"></path></g><!----></svg>